<?xml version="1.0" standalone="no"?>
<!DOCTYPE svg PUBLIC "-//W3C//DTD SVG 20010904//EN"
 "http://www.w3.org/TR/2001/REC-SVG-20010904/DTD/svg10.dtd">
<svg version="1.0" xmlns="http://www.w3.org/2000/svg"
 width="187.000000pt" height="146.000000pt" viewBox="0 0 187.000000 146.000000"
 preserveAspectRatio="xMidYMid meet">
<metadata>
Created by potrace 1.10, written by Peter Selinger 2001-2011
</metadata>
<g transform="translate(0.000000,146.000000) scale(0.100000,-0.100000)"
fill="#C0C0C0" stroke="none">
<path d="M994 1425 c-37 -57 23 -131 86 -105 41 17 56 59 36 99 -15 28 -21 31
-61 31 -36 0 -48 -5 -61 -25z m98 -9 c17 -25 8 -66 -16 -77 -43 -20 -79 19
-68 73 5 27 67 30 84 4z"/>
<path d="M1020 1360 c0 -5 5 -10 11 -10 5 0 7 5 4 10 -3 6 -8 10 -11 10 -2 0
-4 -4 -4 -10z"/>
<path d="M650 1397 c-56 -28 -48 -110 13 -131 67 -24 118 78 61 123 -31 24
-40 25 -74 8z m55 -17 c23 -9 26 -15 23 -47 -3 -35 -5 -36 -39 -36 -47 0 -58
8 -57 42 1 23 5 28 22 25 12 -3 15 -2 8 2 -13 6 -7 24 8 24 5 0 21 -4 35 -10z
m-8 -96 c-3 -3 -12 -4 -19 -1 -8 3 -5 6 6 6 11 1 17 -2 13 -5z"/>
<path d="M762 1274 c-24 -16 -28 -44 -12 -75 13 -23 62 -26 84 -3 45 45 -20
115 -72 78z m65 -44 c-4 -24 -17 -38 -17 -19 -1 10 -4 10 -14 -4 -12 -15 -15
-15 -26 -3 -6 8 -10 23 -7 33 4 14 5 13 6 -4 0 -13 5 -23 10 -23 5 0 8 8 7 18
0 9 5 16 12 15 6 -2 12 2 12 8 0 5 4 7 10 4 5 -3 8 -15 7 -25z"/>
<path d="M1027 1272 c-20 -22 -22 -63 -5 -80 21 -21 66 -14 83 12 36 55 -35
116 -78 68z m27 -17 c-4 -8 -1 -15 5 -15 6 0 11 7 11 16 0 8 5 12 10 9 13 -8
13 -65 1 -65 -5 0 -12 6 -15 13 -5 9 -7 9 -12 -1 -3 -6 -10 -10 -15 -6 -10 6
-12 47 -2 57 12 12 22 7 17 -8z"/>
<path d="M1310 1227 c-80 -40 -24 -162 59 -127 53 22 59 89 9 124 -27 19 -35
20 -68 3z m61 -17 c13 -7 19 -21 19 -44 0 -40 -18 -58 -51 -52 -13 3 -26 5
-29 5 -3 1 2 6 10 11 13 8 13 10 -1 10 -23 0 -33 29 -13 37 12 5 13 7 3 14
-10 6 -7 11 11 18 32 13 28 13 51 1z"/>
<path d="M1358 1133 c7 -3 16 -2 19 1 4 3 -2 6 -13 5 -11 0 -14 -3 -6 -6z"/>
<path d="M820 1155 c-14 -17 -5 -51 16 -59 22 -8 54 11 54 32 0 38 -46 56 -70
27z"/>
<path d="M999 1138 c-10 -18 -8 -24 11 -40 38 -31 83 15 48 50 -19 19 -46 14
-59 -10z"/>
<path d="M1214 1102 c-6 -4 -16 -17 -23 -30 -25 -48 48 -99 87 -60 40 40 -18
121 -64 90z m27 -32 c6 0 7 5 3 11 -4 7 -1 10 7 7 8 -3 14 -17 14 -33 -1 -23
-6 -28 -28 -31 -23 -2 -26 1 -25 24 2 33 10 50 16 34 2 -7 8 -12 13 -12z"/>
<path d="M416 1079 c-50 -39 -22 -122 42 -122 69 0 99 80 46 122 -15 12 -34
21 -44 21 -10 0 -29 -9 -44 -21z m59 -9 c-3 -5 0 -7 8 -4 8 3 18 1 22 -5 3 -6
0 -11 -7 -11 -10 0 -10 -2 1 -9 20 -13 6 -62 -16 -54 -10 4 -14 2 -9 -5 4 -7
-1 -10 -13 -9 -11 0 -19 4 -19 7 2 22 -4 31 -17 26 -22 -8 -20 50 3 63 22 13
55 14 47 1z"/>
<path d="M425 1050 c-3 -5 -1 -10 4 -10 6 0 11 5 11 10 0 6 -2 10 -4 10 -3 0
-8 -4 -11 -10z"/>
<path d="M582 1074 c-41 -28 -19 -94 32 -94 26 0 56 29 56 53 0 20 -34 57 -53
57 -7 0 -23 -7 -35 -16z m46 -37 c2 -20 -1 -27 -13 -27 -14 0 -16 6 -10 27 5
23 4 25 -9 14 -16 -13 -23 -1 -9 13 15 14 38 0 41 -27z"/>
<path d="M870 1075 c-16 -19 -6 -45 19 -45 23 0 35 28 20 46 -15 18 -24 18
-39 -1z"/>
<path d="M987 1064 c-4 -4 -7 -16 -7 -26 0 -13 7 -18 26 -18 21 0 25 4 22 22
-3 23 -27 35 -41 22z"/>
<path d="M691 1022 c-14 -27 8 -55 40 -50 19 2 24 9 24 33 0 25 -4 31 -27 33
-18 2 -30 -3 -37 -16z m50 -9 c11 -15 11 -16 -1 -6 -10 9 -17 10 -27 2 -13
-12 -19 2 -6 14 10 11 20 8 34 -10z"/>
<path d="M1112 1018 c-18 -18 -15 -35 10 -52 15 -11 26 -12 40 -5 32 17 16 69
-22 69 -9 0 -21 -5 -28 -12z"/>
<path d="M787 997 c-22 -16 -13 -47 14 -47 25 0 36 28 17 46 -11 12 -17 12
-31 1z"/>
<path d="M892 993 c4 -21 33 -25 33 -3 0 8 -8 16 -18 18 -14 3 -18 -1 -15 -15z"/>
<path d="M961 996 c-12 -14 -5 -26 16 -26 15 0 18 26 4 34 -5 3 -14 0 -20 -8z"/>
<path d="M1044 976 c-9 -24 4 -48 23 -44 12 2 18 12 18 28 0 29 -32 41 -41 16z"/>
<path d="M851 960 c-16 -9 -6 -30 15 -30 15 0 20 25 6 34 -4 2 -14 1 -21 -4z"/>
<path d="M985 951 c-8 -15 3 -31 21 -31 9 0 14 7 12 17 -4 20 -24 28 -33 14z"/>
<path d="M840 886 c0 -15 24 -28 34 -19 13 14 5 33 -14 33 -11 0 -20 -6 -20
-14z"/>
<path d="M987 894 c-14 -14 -7 -35 11 -32 9 2 17 10 17 17 0 16 -18 25 -28 15z"/>
<path d="M774 875 c-8 -19 3 -35 26 -35 19 0 30 17 23 38 -6 17 -42 15 -49 -3z"/>
<path d="M696 855 c-19 -20 -20 -26 -3 -49 26 -36 84 4 61 42 -15 23 -38 26
-58 7z m39 -15 c3 -5 -3 -10 -15 -10 -12 0 -18 5 -15 10 3 6 10 10 15 10 5 0
12 -4 15 -10z m2 -26 c-3 -3 -12 -4 -19 -1 -8 3 -5 6 6 6 11 1 17 -2 13 -5z"/>
<path d="M1034 855 c-8 -19 3 -35 26 -35 19 0 30 17 23 38 -6 17 -42 15 -49
-3z"/>
<path d="M1356 849 c-19 -15 -26 -30 -26 -54 0 -37 37 -75 72 -75 27 0 68 45
68 75 0 30 -41 75 -68 75 -11 0 -31 -9 -46 -21z m68 -8 c4 -5 0 -12 -6 -15 -7
-4 -3 -4 10 -2 19 4 22 0 22 -28 0 -39 -26 -58 -66 -47 -23 6 -30 14 -32 40
-2 18 2 39 9 47 13 16 55 19 63 5z"/>
<path d="M1368 823 c7 -3 16 -2 19 1 4 3 -2 6 -13 5 -11 0 -14 -3 -6 -6z"/>
<path d="M1360 781 c0 -6 4 -13 10 -16 6 -3 7 1 4 9 -7 18 -14 21 -14 7z"/>
<path d="M1115 846 c-25 -18 -16 -60 14 -64 31 -5 54 23 41 48 -13 24 -35 31
-55 16z"/>
<path d="M884 829 c-3 -6 -2 -15 4 -21 13 -13 32 -2 32 18 0 16 -26 19 -36 3z"/>
<path d="M950 826 c0 -21 21 -31 30 -15 5 7 6 17 4 21 -9 14 -34 9 -34 -6z"/>
<path d="M1205 820 c-40 -45 20 -109 71 -75 26 17 30 44 14 76 -14 25 -62 25
-85 -1z m59 -6 c17 -45 -8 -80 -39 -54 -20 17 -20 54 0 47 8 -4 17 -2 20 3 3
4 -1 11 -7 13 -8 4 -7 6 3 6 9 1 20 -6 23 -15z"/>
<path d="M1220 780 c0 -5 5 -10 11 -10 5 0 7 5 4 10 -3 6 -8 10 -11 10 -2 0
-4 -4 -4 -10z"/>
<path d="M592 814 c-41 -28 -22 -94 28 -94 55 0 78 52 40 90 -24 24 -38 25
-68 4z m58 -44 c2 19 3 21 7 6 6 -22 -17 -49 -24 -28 -3 6 -11 12 -19 12 -9 0
-12 -5 -8 -12 4 -7 3 -8 -4 -4 -21 13 -14 44 11 48 16 2 24 -3 28 -22 l7 -25
2 25z"/>
<path d="M846 773 c-10 -26 23 -48 42 -29 8 8 12 22 9 30 -8 21 -43 20 -51 -1z"/>
<path d="M964 776 c-9 -24 4 -48 23 -44 12 2 18 12 18 28 0 29 -32 41 -41 16z"/>
<path d="M472 707 c-44 -46 -14 -117 48 -117 17 0 39 9 50 20 11 11 20 33 20
50 0 63 -75 93 -118 47z m86 -9 c7 -7 12 -24 12 -38 0 -14 -5 -31 -12 -38 -16
-16 -63 -15 -76 1 -13 15 -12 57 1 75 12 15 59 16 75 0z"/>
<path d="M541 634 c0 -11 3 -14 6 -6 3 7 2 16 -1 19 -3 4 -6 -2 -5 -13z"/>
<path d="M811 702 c-14 -27 8 -55 40 -50 19 2 24 9 24 33 0 25 -4 31 -27 33
-18 2 -30 -3 -37 -16z m50 -9 c12 -16 12 -17 -2 -6 -9 7 -20 9 -24 5 -5 -4 -5
-1 -1 6 9 16 11 15 27 -5z"/>
<path d="M990 705 c-14 -17 -5 -51 16 -59 22 -8 54 11 54 32 0 38 -46 56 -70
27z m45 -5 c3 -5 -1 -10 -10 -10 -9 0 -13 5 -10 10 3 6 8 10 10 10 2 0 7 -4
10 -10z"/>
<path d="M1046 627 c-38 -28 -13 -97 34 -97 28 0 53 25 53 55 0 30 -25 55 -53
55 -9 0 -24 -6 -34 -13z m61 -45 c-3 -21 -9 -27 -28 -27 -19 0 -24 6 -26 28
-1 21 2 27 12 23 8 -3 17 -1 20 5 11 17 26 -2 22 -29z"/>
<path d="M1065 570 c3 -5 11 -10 16 -10 6 0 7 5 4 10 -3 6 -11 10 -16 10 -6 0
-7 -4 -4 -10z"/>
<path d="M777 612 c-33 -36 -8 -92 40 -92 25 0 53 30 53 57 0 46 -62 69 -93
35z m70 -35 c1 -20 -2 -27 -11 -24 -8 3 -18 1 -24 -5 -15 -15 -32 -1 -32 26 0
30 9 38 39 34 20 -2 26 -9 28 -31z"/>
<path d="M810 590 c0 -5 7 -10 16 -10 8 0 12 5 9 10 -3 6 -10 10 -16 10 -5 0
-9 -4 -9 -10z"/>
<path d="M791 574 c0 -11 3 -14 6 -6 3 7 2 16 -1 19 -3 4 -6 -2 -5 -13z"/>
<path d="M1140 530 c-27 -27 -25 -66 5 -95 29 -30 68 -32 95 -5 26 26 26 81 2
103 -25 23 -78 21 -102 -3z m95 -44 c0 -45 -19 -62 -57 -53 -19 5 -27 15 -30
36 -7 46 7 62 50 58 36 -2 37 -4 37 -41z"/>
<path d="M1210 511 c0 -5 5 -13 10 -16 6 -3 10 -2 10 4 0 5 -4 13 -10 16 -5 3
-10 2 -10 -4z"/>
<path d="M1210 455 c-7 -9 -8 -15 -2 -15 5 0 12 7 16 15 3 8 4 15 2 15 -2 0
-9 -7 -16 -15z"/>
<path d="M1165 450 c3 -5 8 -10 11 -10 2 0 4 5 4 10 0 6 -5 10 -11 10 -5 0 -7
-4 -4 -10z"/>
<path d="M770 470 c-26 -26 -25 -60 1 -94 41 -52 119 -21 119 47 0 20 -8 41
-18 50 -25 23 -78 21 -102 -3z m98 -38 c4 -41 -12 -62 -47 -62 -34 0 -51 17
-51 50 0 36 19 51 60 48 32 -3 35 -6 38 -36z"/>
<path d="M785 450 c-3 -5 1 -10 10 -10 9 0 13 5 10 10 -3 6 -8 10 -10 10 -2 0
-7 -4 -10 -10z"/>
<path d="M835 450 c-3 -5 1 -10 10 -10 9 0 13 5 10 10 -3 6 -8 10 -10 10 -2 0
-7 -4 -10 -10z"/>
<path d="M790 394 c0 -8 5 -12 10 -9 6 4 8 11 5 16 -9 14 -15 11 -15 -7z"/>
<path d="M835 399 c-9 -14 -2 -20 14 -10 8 6 9 11 3 15 -6 3 -14 1 -17 -5z"/>
<path d="M27 232 c-26 -29 -20 -55 23 -113 45 -60 46 -62 25 -79 -19 -16 -35
-4 -35 26 0 15 -6 24 -15 24 -18 0 -21 -50 -3 -68 20 -20 76 -15 88 7 17 33
11 56 -30 111 -42 56 -45 73 -17 78 11 2 19 -6 23 -22 8 -33 34 -34 34 -2 0
50 -60 75 -93 38z"/>
<path d="M150 130 l0 -120 45 0 c33 0 45 4 45 15 0 9 -9 15 -25 15 -22 0 -25
4 -25 40 0 33 3 40 20 40 11 0 20 7 20 15 0 8 -9 15 -20 15 -15 0 -20 7 -20
28 0 15 -4 32 -10 38 -7 7 2 9 25 6 27 -3 35 -1 35 12 0 12 -10 16 -45 16
l-45 0 0 -120z"/>
<path d="M270 131 l0 -121 38 0 c25 0 45 7 55 18 21 23 22 76 2 95 -13 13 -13
16 0 27 18 15 19 50 2 74 -7 9 -32 20 -55 23 l-42 6 0 -122z m68 55 c3 -26
-10 -45 -30 -46 -5 0 -8 18 -8 41 0 33 3 40 18 37 10 -2 18 -14 20 -32z m5
-88 c14 -21 -6 -68 -28 -68 -11 0 -15 11 -15 46 0 37 3 45 16 42 9 -2 22 -11
27 -20z"/>
<path d="M440 247 c0 -2 -9 -52 -20 -112 -11 -60 -20 -112 -20 -117 0 -17 29
-7 35 12 9 28 55 28 55 0 0 -13 7 -20 18 -20 18 0 18 3 0 98 -28 147 -27 142
-48 142 -11 0 -20 -1 -20 -3z m33 -114 c3 -45 2 -53 -13 -53 -15 0 -17 7 -13
48 9 92 18 93 26 5z"/>
<path d="M557 232 c-26 -28 -21 -54 23 -112 44 -59 44 -59 31 -79 -8 -12 -12
-12 -25 -2 -9 8 -16 22 -16 32 0 11 -7 19 -15 19 -18 0 -21 -50 -3 -68 7 -7
26 -12 43 -12 67 0 73 52 15 130 -42 57 -46 75 -14 75 12 0 20 -8 22 -22 5
-31 32 -30 32 1 0 50 -60 75 -93 38z"/>
<path d="M666 235 c-4 -11 1 -15 17 -15 22 0 22 -2 19 -105 -4 -101 -3 -105
17 -105 20 0 21 5 21 105 0 98 1 105 20 105 11 0 20 7 20 15 0 11 -13 15 -54
15 -39 0 -55 -4 -60 -15z"/>
<path d="M800 130 c0 -113 1 -120 20 -120 19 0 20 7 20 120 0 113 -1 120 -20
120 -19 0 -20 -7 -20 -120z"/>
<path d="M909 248 c0 -2 -11 -56 -23 -120 -21 -113 -22 -118 -4 -118 11 0 18
7 18 20 0 15 7 20 25 20 18 0 25 -5 25 -20 0 -13 7 -20 20 -20 24 0 24 -11 -1
127 -18 97 -24 113 -40 113 -11 0 -19 -1 -20 -2z m30 -112 c7 -52 6 -56 -12
-56 -17 0 -19 5 -13 31 3 17 6 45 6 62 0 46 11 26 19 -37z"/>
<path d="M1015 130 c0 -108 2 -120 18 -120 14 0 17 9 17 53 0 28 -4 69 -9 90
-5 20 -5 37 -1 37 4 0 10 -14 14 -32 12 -61 49 -148 62 -148 11 0 14 25 14
120 0 104 -2 120 -16 120 -14 0 -16 -12 -13 -79 2 -44 2 -78 -2 -76 -3 2 -16
38 -29 79 -16 52 -28 76 -39 76 -14 0 -16 -17 -16 -120z"/>
<path d="M1246 228 c-11 -16 -16 -46 -16 -98 0 -52 5 -82 16 -98 16 -24 59
-30 67 -9 4 9 6 9 6 0 1 -7 8 -13 16 -13 12 0 15 13 15 60 0 60 0 60 -30 60
-16 0 -30 -4 -30 -10 0 -5 5 -10 11 -10 6 0 9 -16 7 -37 -2 -26 -8 -38 -18
-38 -12 0 -16 18 -18 93 -3 85 -1 93 15 90 10 -2 19 -13 21 -26 2 -12 10 -22
18 -22 17 0 19 51 2 68 -20 20 -65 14 -82 -10z"/>
<path d="M1380 130 l0 -120 45 0 c33 0 45 4 45 15 0 10 -10 15 -28 15 -26 0
-27 2 -24 40 3 31 8 40 23 40 10 0 19 7 19 15 0 9 -9 15 -24 15 -19 0 -22 4
-18 25 2 14 0 31 -6 38 -9 10 -4 12 23 9 27 -3 35 -1 35 12 0 12 -10 16 -45
16 l-45 0 0 -120z"/>
<path d="M1500 131 c0 -101 2 -121 15 -121 11 0 15 12 15 45 0 56 11 57 31 2
11 -29 22 -43 37 -45 l21 -3 -20 45 c-18 42 -19 48 -5 68 19 27 21 78 3 102
-7 9 -32 20 -55 23 l-42 6 0 -122z m68 45 c3 -36 -8 -55 -30 -56 -5 0 -8 23
-8 51 0 43 3 50 18 47 12 -2 18 -15 20 -42z"/>
<path d="M1630 235 c0 -8 9 -15 21 -15 19 0 20 -5 17 -105 -3 -95 -1 -105 15
-105 15 0 17 12 17 105 0 98 1 105 20 105 11 0 20 7 20 15 0 12 -13 15 -55 15
-42 0 -55 -3 -55 -15z"/>
<path d="M1760 235 c0 -10 10 -15 31 -15 26 0 30 -3 24 -17 -25 -64 -65 -176
-65 -184 0 -5 25 -9 55 -9 44 0 55 3 55 16 0 13 -8 15 -35 12 -40 -5 -41 -11
6 112 16 41 29 80 29 87 0 9 -16 13 -50 13 -38 0 -50 -4 -50 -15z"/>
</g>
</svg>
